<svg width="51" height="47" viewBox="0 0 51 47" fill="none" xmlns="http://www.w3.org/2000/svg">
<path fill-rule="evenodd" clip-rule="evenodd" d="M40.638 37.1054C42.6793 35.3597 44.3055 33.2515 45.416 30.9112C46.5266 28.5708 47.0979 26.048 47.0947 23.4987C47.0947 13.1743 37.8995 4.80554 26.5556 4.80554C15.2118 4.80554 6.01662 13.1743 6.01662 23.4987C6.01337 26.048 6.58469 28.5708 7.69523 30.9112C8.80578 33.2515 10.432 35.3597 12.4732 37.1054C16.2797 40.3779 21.3194 42.1982 26.5556 42.1918C31.7918 42.1982 36.8316 40.3779 40.638 37.1054ZM14.2217 34.6417C15.7007 32.9577 17.5775 31.5985 19.7127 30.6652C21.848 29.7318 24.1869 29.2483 26.5556 29.2504C28.9244 29.2483 31.2633 29.7318 33.3985 30.6652C35.5338 31.5985 37.4106 32.9577 38.8896 34.6417C37.276 36.1251 35.3549 37.3021 33.2376 38.1045C31.1204 38.9069 28.8491 39.3187 26.5556 39.316C24.2622 39.3187 21.9909 38.9069 19.8737 38.1045C17.7564 37.3021 15.8353 36.1251 14.2217 34.6417ZM34.4553 17.747C34.4553 19.6538 33.623 21.4825 32.1415 22.8308C30.66 24.1791 28.6507 24.9366 26.5556 24.9366C24.4605 24.9366 22.4512 24.1791 20.9698 22.8308C19.4883 21.4825 18.656 19.6538 18.656 17.747C18.656 15.8401 19.4883 14.0114 20.9698 12.6631C22.4512 11.3148 24.4605 10.5573 26.5556 10.5573C28.6507 10.5573 30.66 11.3148 32.1415 12.6631C33.623 14.0114 34.4553 15.8401 34.4553 17.747Z" fill="white"/>
</svg>
